# xmcd
#
# Track frame offsets:
#	150
#	18723
#	34217
#	49345
#	64328
#	80684
#	97049
#	111026
#	128193
#	140360
#	155119
#	168599
#	184398
#	199107
#	216716
#	233832
#	245762
#	262140
#	278911
#	294656
#	308476
#
# Disc length: 4345 seconds
#
# Revision: 1
# Processed by: cddbd v1.5.2PL0 Copyright (c) Steve Scherf et al.
# Submitted via: audiograbber 1.83.01
#
DISCID=5510f715
DTITLE=Various Artist - ERG NCT 157
DYEAR=2007
DGENRE=Country
TTITLE0=Faith Hill - Lost
TTITLE1=Kenny Chesney - Never Wanted Nothing More
TTITLE2=Dierks Bentley - Free And Easy (Down The Road I Go)
TTITLE3=Jason Blaine - Rock In My Boot
TTITLE4=Montgomery Gentry - What Do Ya Think About That
TTITLE5=Johnny Reid - Kickin' Stones
TTITLE6=Paul Brandt - Didn't Even See The Dust
TTITLE7=Martina McBride - How I Feel
TTITLE8=Big Mike Callan - Shake What Your Momma Gave Ya
TTITLE9=Brooks and Dunn - Proud Of The House We Built
TTITLE10=Joe Nichols - Another Side Of You
TTITLE11=Sara Evans - As If
TTITLE12=Willie Mac - Gotta Get Me A Cadillac
TTITLE13=Travis Tritt - You Never Take Me Dancing
TTITLE14=Tracy Byrd - Better Places Than This
TTITLE15=Mark Chesnutt - That Good That Bad
TTITLE16=Gretchen Wilson - One Of The Boys
TTITLE17=Reba McEntire ft. Kelly Clarkson - Because Of You
TTITLE18=Whiskey Falls - Last Train Running
TTITLE19=Mark Wills - Days Of Thunder
TTITLE20=LeAnn Rimes - Nothin' Better To Do
EXTD=
EXTT0=
EXTT1=
EXTT2=
EXTT3=
EXTT4=
EXTT5=
EXTT6=
EXTT7=
EXTT8=
EXTT9=
EXTT10=
EXTT11=
EXTT12=
EXTT13=
EXTT14=
EXTT15=
EXTT16=
EXTT17=
EXTT18=
EXTT19=
EXTT20=
PLAYORDER=
